<svg width="25" height="24" viewBox="0 0 25 24" fill="none" xmlns="http://www.w3.org/2000/svg">
<g id="Frame">
<g id="Group">
<path id="Vector" d="M19.6763 11H15.4462L16.9662 6.06C17.2862 5.03 16.4462 4 15.2863 4C14.7063 4 14.1462 4.24 13.7662 4.65L7.90625 11H3.90625V21H7.90625H8.90625H18.3363C19.3962 21 20.3163 20.33 20.5263 19.39L21.8662 13.39C22.1362 12.15 21.0863 11 19.6763 11ZM7.90625 20H4.90625V12H7.90625V20ZM20.8862 13.17L19.5462 19.17C19.4462 19.65 18.9363 20 18.3363 20H8.90625V11.39L14.5063 5.33C14.6962 5.12 14.9862 5 15.2863 5C15.5463 5 15.7863 5.11 15.9163 5.3C15.9862 5.4 16.0663 5.56 16.0063 5.77L14.4862 10.71L14.0863 12H15.4362H19.6663C20.0763 12 20.4663 12.17 20.6963 12.46C20.8263 12.61 20.9562 12.86 20.8862 13.17Z" fill="#0F0F0F"/>
</g>
</g>
</svg>
