<svg width="25" height="24" viewBox="0 0 25 24" fill="none" xmlns="http://www.w3.org/2000/svg">
<g id="Frame">
<g id="Group">
<path id="Vector" d="M17.6094 4H16.6094H7.17938C6.10938 4 5.19938 4.67 4.98938 5.61L3.64938 11.61C3.37938 12.85 4.42938 14 5.83938 14H10.0694L8.54938 18.94C8.22938 19.97 9.06938 21 10.2294 21C10.8094 21 11.3694 20.76 11.7494 20.35L17.6094 14H21.6094V4H17.6094ZM11.0094 19.67C10.8194 19.88 10.5294 20 10.2294 20C9.96938 20 9.72938 19.89 9.59938 19.7C9.52938 19.6 9.44938 19.44 9.50938 19.23L11.0294 14.29L11.4294 13H10.0694H5.83938C5.42938 13 5.03938 12.83 4.80938 12.54C4.68938 12.39 4.55938 12.14 4.62938 11.82L5.96938 5.82C6.06938 5.35 6.57938 5 7.17938 5H16.6094V13.61L11.0094 19.67ZM20.6094 13H17.6094V5H20.6094V13Z" fill="#0F0F0F"/>
</g>
</g>
</svg>
