<svg width="25" height="24" viewBox="0 0 25 24" fill="none" xmlns="http://www.w3.org/2000/svg">
<g id="Frame">
<g id="Group">
<path id="Vector" d="M12.8906 16.5C13.7206 16.5 14.3906 17.17 14.3906 18C14.3906 18.83 13.7206 19.5 12.8906 19.5C12.0606 19.5 11.3906 18.83 11.3906 18C11.3906 17.17 12.0606 16.5 12.8906 16.5ZM11.3906 12C11.3906 12.83 12.0606 13.5 12.8906 13.5C13.7206 13.5 14.3906 12.83 14.3906 12C14.3906 11.17 13.7206 10.5 12.8906 10.5C12.0606 10.5 11.3906 11.17 11.3906 12ZM11.3906 6C11.3906 6.83 12.0606 7.5 12.8906 7.5C13.7206 7.5 14.3906 6.83 14.3906 6C14.3906 5.17 13.7206 4.5 12.8906 4.5C12.0606 4.5 11.3906 5.17 11.3906 6Z" fill="#030303"/>
</g>
</g>
</svg>
