<svg width="24" height="24" viewBox="0 0 24 24" fill="none" xmlns="http://www.w3.org/2000/svg">
<g id="Frame">
<g id="Group">
<path id="Vector" d="M7 8C7 10.76 9.24 13 12 13C14.76 13 17 10.76 17 8H16C16 10.21 14.21 12 12 12C9.79 12 8 10.21 8 8H7ZM16.9 6C16.44 3.72 14.42 2 12 2C9.58 2 7.56 3.72 7.1 6H4V20C4 21.1 4.9 22 6 22H18C19.1 22 20 21.1 20 20V6H16.9ZM12 3C13.86 3 15.43 4.27 15.87 6H8.13C8.57 4.27 10.14 3 12 3ZM19 20C19 20.55 18.55 21 18 21H6C5.45 21 5 20.55 5 20V7H19V20Z" fill="#030303"/>
</g>
</g>
</svg>
