<svg width="24" height="24" viewBox="0 0 24 24" fill="none" xmlns="http://www.w3.org/2000/svg">
<g id="Frame">
<g id="Group">
<path id="Vector" d="M9.99995 14.6502V9.35024L15 12.0002L9.99995 14.6502ZM17.77 10.3202C17 10.0002 16.57 9.82023 16.57 9.82023L18 9.06024C19.84 8.10024 20.53 5.83024 19.56 4.00024C18.59 2.17024 16.32 1.47024 14.49 2.44024L5.99995 6.94024C4.70995 7.62023 3.92995 8.98024 3.99995 10.4302C4.06995 11.8502 4.92995 13.1002 6.21995 13.6802C6.24995 13.6902 7.41995 14.1802 7.41995 14.1802L5.99995 14.9302C4.16995 15.9002 3.46995 18.1702 4.43995 20.0002C5.40995 21.8302 7.67995 22.5302 9.50995 21.5602L18.01 17.0602C19.3 16.3802 20.07 15.0202 20 13.5702C19.93 12.1502 19.06 10.8902 17.77 10.3202ZM17.54 16.1802L9.03995 20.6802C7.69995 21.3902 6.02995 20.8802 5.31995 19.5402C4.60995 18.2002 5.11995 16.5302 6.45995 15.8202L8.49995 14.7402V13.5302L7.80995 13.2502L6.69995 12.7902C5.70995 12.3802 5.04995 11.4402 4.99995 10.3802C4.94995 9.32024 5.51995 8.32024 6.45995 7.82024L14.96 3.32024C16.3 2.61024 17.97 3.12024 18.68 4.46024C19.39 5.80024 18.88 7.47024 17.54 8.18024L15.5 9.26024V10.4702L17.3 11.2102C18.29 11.6202 18.95 12.5602 19 13.6202C19.05 14.6802 18.48 15.6802 17.54 16.1802Z" fill="#030303"/>
</g>
</g>
</svg>
